Coordinates
version=1
nRows=8
nColumns=46
inDegrees=yes

Units are S.I. units (second, meters, Newtons, ...)
Angles are in degrees.

endheader
time	pelvis_tilt	pelvis_list	pelvis_rotation	pelvis_tx	pelvis_ty	pelvis_tz	bb_angle	bb_tx	bb_ty	bb_tz	hip_flexion_r	hip_adduction_r	hip_rotation_r	knee_angle_r	knee_angle_r_beta	ankle_angle_r	subtalar_angle_r	mtp_angle_r	crank_angle_r	hip_flexion_l	hip_adduction_l	hip_rotation_l	knee_angle_l	knee_angle_l_beta	ankle_angle_l	subtalar_angle_l	mtp_angle_l	crank_angle_l	lumbar_extension	lumbar_bending	lumbar_rotation	arm_flex_r	arm_add_r	arm_rot_r	elbow_flex_r	pro_sup_r	wrist_flex_r	wrist_dev_r	arm_flex_l	arm_add_l	arm_rot_l	elbow_flex_l	pro_sup_l	wrist_flex_l	wrist_dev_l
      2.50000000	    -32.46410938	     -8.94627813	     -9.03331342	      0.37285129	      1.22344269	     -0.26269451	      0.00000000	      0.50000000	      0.00000000	      0.25000000	     75.95691617	     12.51242984	     -0.31011380	     80.46110118	      1.40431114	     12.77287206	    -10.61631028	      0.00000000	      0.00000000	     34.92321337	    -20.28193215	     -7.23566253	     29.86070414	      0.52116760	    -26.40535798	      3.62541250	      0.00000000	      0.00000000	    -58.74452954	     -0.53329603	     10.36005596	     46.45218949	    -20.72260295	     20.87812589	     93.98895487	     50.57322893	      0.00000000	      0.00000000	     36.83565294	    -22.51065620	      8.75455718	     91.62423848	     51.34856378	      0.00000000	      0.00000000
      2.50500000	    -32.59288578	     -8.37635595	     -9.02673822	      0.37321201	      1.22497867	     -0.26200012	      0.00000000	      0.50000000	      0.00000000	      0.25000000	     75.39373378	     12.44652443	      0.39324198	     78.74074461	      1.37428525	     12.28342924	    -10.73803634	      0.00000000	      0.00000000	     35.45602117	    -19.75347077	     -6.60418440	     31.14509176	      0.54358440	    -26.14624761	      3.10797700	      0.00000000	      0.00000000	    -58.86823716	     -0.91676086	     10.02802300	     46.33187321	    -20.25506656	     20.30616214	     94.25073164	     50.44413179	      0.00000000	      0.00000000	     37.15715543	    -22.27783454	      8.61312664	     91.53224381	     51.16504220	      0.00000000	      0.00000000
      2.51000000	    -32.61876398	     -7.87211110	     -8.99906376	      0.37364205	      1.22652437	     -0.26122112	      0.00000000	      0.50000000	      0.00000000	      0.25000000	     74.68680637	     12.40090703	      0.98111943	     76.92625159	      1.34261637	     11.42729115	    -11.56976679	      0.00000000	      0.00000000	     35.93023448	    -19.28931878	     -6.06379430	     32.50885127	      0.56738649	    -25.86843999	      2.52534110	      0.00000000	      0.00000000	    -59.14875452	     -1.30666734	      9.85916931	     45.89767669	    -19.83162513	     19.36154681	     95.04090483	     50.13394159	      0.00000000	      0.00000000	     37.43404734	    -22.01544258	      8.57750239	     91.55404607	     50.71093223	      0.00000000	      0.00000000
      2.51500000	    -32.66580183	     -7.29612457	     -8.95654443	      0.37412261	      1.22784170	     -0.26052556	      0.00000000	      0.50000000	      0.00000000	      0.25000000	     73.95365524	     12.26599098	      1.63659554	     75.07190856	      1.31025198	     10.68260394	    -12.08248643	      0.00000000	      0.00000000	     36.42310209	    -18.76158284	     -5.66651462	     33.88831443	      0.59146266	    -25.37966190	      2.18788779	      0.00000000	      0.00000000	    -59.37303660	     -1.72485306	      9.68240709	     45.49267709	    -19.74377489	     18.74877841	     95.87472218	     50.03475297	      0.00000000	      0.00000000	     37.82322587	    -21.84746499	      8.81908068	     91.63571489	     50.54461266	      0.00000000	      0.00000000
      2.52000000	    -32.72849955	     -6.73696641	     -8.88386339	      0.37457447	      1.22887723	     -0.25988169	      0.00000000	      0.50000000	      0.00000000	      0.25000000	     73.21870420	     12.07653864	      2.31001986	     73.26511817	      1.27871754	     10.04854301	    -12.19325778	      0.00000000	      0.00000000	     37.01954643	    -18.27894420	     -5.37084820	     35.41658897	      0.61813609	    -24.74906154	      1.72546917	      0.00000000	      0.00000000	    -59.51591202	     -2.19273925	     10.25669519	     44.37879587	    -20.33581773	     17.25651057	     97.42820039	     49.80117035	      0.00000000	      0.00000000	     39.01007531	    -20.98661535	     10.06680764	     90.77315354	     50.39045910	      0.00000000	      0.00000000
      2.52500000	    -32.68895695	     -6.18104939	     -8.75432014	      0.37506520	      1.22986716	     -0.25937080	      0.00000000	      0.50000000	      0.00000000	      0.25000000	     72.32167941	     11.82954450	      2.96227265	     71.35273035	      1.24534007	      9.27336167	    -12.57813400	      0.00000000	      0.00000000	     37.55317854	    -17.77112938	     -5.19088069	     37.02234288	      0.64616178	    -24.07910937	      1.28740206	      0.00000000	      0.00000000	    -59.73514783	     -2.50018011	      9.86406383	     44.21026475	    -19.96582538	     16.90836946	     97.72916262	     49.64135281	      0.00000000	      0.00000000	     39.28600088	    -20.81035080	     10.00378250	     90.79025141	     50.17472205	      0.00000000	      0.00000000
      2.53000000	    -32.66563713	     -5.63517578	     -8.58141146	      0.37555054	      1.23057289	     -0.25890016	      0.00000000	      0.50000000	      0.00000000	      0.25000000	     71.41200190	     11.52844474	      3.55994158	     69.40568416	      1.21135771	      8.42953330	    -13.07343985	      0.00000000	      0.00000000	     38.16392621	    -17.29310412	     -5.10574716	     38.71301248	      0.67566953	    -23.37924487	      0.86438480	      0.00000000	      0.00000000	    -59.91206899	     -2.76352375	      9.52998040	     43.92602219	    -19.69560255	     16.48891701	     98.14538156	     49.48557931	      0.00000000	      0.00000000	     39.54251441	    -20.63212510	     10.04812140	     90.82734366	     49.96461154	      0.00000000	      0.00000000
      2.53500000	    -32.85898817	     -5.06727346	     -8.32981915	      0.37573629	      1.23076988	     -0.25861884	      0.00000000	      0.50000000	      0.00000000	      0.25000000	     70.73961146	     10.96860690	      3.93185613	     67.47451843	      1.17765251	      7.97501206	    -12.71455537	      0.00000000	      0.00000000	     39.12476163	    -16.75567396	     -4.91773515	     40.50355581	      0.70692041	    -22.72912795	      0.34778391	      0.00000000	      0.00000000	    -59.77040769	     -2.93361022	      9.04413773	     43.78252157	    -19.04056898	     15.92989304	     97.89047810	     49.23579751	      0.00000000	      0.00000000	     39.78153332	    -20.24485625	      9.76853561	     90.58708279	     49.62906684	      0.00000000	      0.00000000
